<svg width="23" height="22" viewBox="0 0 23 22" fill="none" xmlns="http://www.w3.org/2000/svg">
<g clip-path="url(#clip0_24_675)">
<path d="M11.4245 21.9001C17.3049 21.9001 22.0719 17.1174 22.0719 11.2178C22.0719 5.31809 17.3049 0.535461 11.4245 0.535461C5.54404 0.535461 0.777008 5.31809 0.777008 11.2178C0.777008 17.1174 5.54404 21.9001 11.4245 21.9001Z" fill="#C4D600"/>
<path fill-rule="evenodd" clip-rule="evenodd" d="M5.59636 11.1049C8.70031 9.74812 10.7701 8.85366 11.8057 8.4215C14.7626 7.18759 15.3771 6.97325 15.7775 6.96617C15.8656 6.96461 16.0626 6.98651 16.1901 7.09037C16.2978 7.17806 16.3275 7.29652 16.3417 7.37966C16.3558 7.4628 16.3735 7.65219 16.3595 7.80018C16.1992 9.48931 15.5059 13.5884 15.1532 15.4802C15.0039 16.2807 14.71 16.5491 14.4255 16.5754C13.8072 16.6325 13.3377 16.1654 12.7388 15.7716C11.8017 15.1553 11.2723 14.7716 10.3626 14.1702C9.31139 13.4752 9.99286 13.0932 10.592 12.4689C10.7487 12.3056 13.4731 9.81948 13.5258 9.59395C13.5324 9.56574 13.5385 9.4606 13.4763 9.40509C13.414 9.34957 13.3221 9.36855 13.2558 9.38365C13.1618 9.40505 11.6648 10.3978 8.76464 12.3619C8.33971 12.6546 7.95482 12.7972 7.60997 12.7898C7.2298 12.7815 6.4985 12.5741 5.95486 12.3968C5.28806 12.1794 4.75811 12.0644 4.80425 11.6951C4.82829 11.5027 5.09233 11.306 5.59636 11.1049Z" fill="#FAFAFA"/>
</g>
<defs>
<clipPath id="clip0_24_675">
<rect width="21.2949" height="21.2949" fill="white" transform="translate(0.777008 0.535461)"/>
</clipPath>
</defs>
</svg>
