<svg width="22" height="22" viewBox="0 0 22 22" fill="none" xmlns="http://www.w3.org/2000/svg">
<g clip-path="url(#clip0_24_680)">
<path d="M21.9332 16.4263C21.9332 16.543 21.9295 16.7946 21.9223 16.9915C21.9041 17.4692 21.8678 18.0854 21.8096 18.3662C21.7224 18.7892 21.5952 19.1866 21.4243 19.5185C21.2245 19.9123 20.97 20.2623 20.6647 20.565C20.3631 20.8676 20.0142 21.1229 19.6216 21.3234C19.2909 21.4948 18.8911 21.6224 18.4659 21.7099C18.1896 21.7646 17.579 21.8048 17.1066 21.8193C16.9103 21.8266 16.6595 21.8303 16.5432 21.8303H6.09037C5.97407 21.8303 5.72329 21.8266 5.52703 21.8193C5.05091 21.8011 4.43667 21.7646 4.15682 21.7063C3.73521 21.6188 3.33905 21.4912 3.00831 21.3198C2.61579 21.1192 2.26687 20.864 1.96521 20.5577C1.66355 20.255 1.40913 19.905 1.20923 19.5112C1.03841 19.1793 0.911204 18.7782 0.823976 18.3516C0.769459 18.0745 0.729479 17.4619 0.714941 16.9879C0.711307 16.7946 0.707672 16.543 0.707672 16.4263V5.93929C0.707672 5.82261 0.711307 5.57101 0.718576 5.3741C0.736748 4.89643 0.773093 4.28019 0.831245 3.99941C0.918473 3.57643 1.04568 3.17897 1.2165 2.84715C1.4164 2.45334 1.67082 2.10329 1.97248 1.80064C2.27414 1.49799 2.62306 1.24274 3.01558 1.04219C3.34632 0.870808 3.74612 0.743184 4.17136 0.65567C4.44758 0.600974 5.05817 0.560864 5.53066 0.546279C5.72692 0.538986 5.9777 0.535339 6.09401 0.535339H16.5468C16.6631 0.535339 16.9139 0.538986 17.1102 0.546279C17.5863 0.564511 18.2005 0.600974 18.4804 0.659317C18.902 0.74683 19.2982 0.874454 19.6289 1.04583C20.0214 1.24639 20.3703 1.50163 20.672 1.80793C20.9737 2.11058 21.2281 2.46064 21.428 2.85445C21.5988 3.18627 21.726 3.58737 21.8132 4.014C21.8678 4.29112 21.9077 4.90372 21.9223 5.37775C21.9295 5.57466 21.9332 5.82626 21.9332 5.94294V16.4263Z" fill="#C4D600"/>
<path fill-rule="evenodd" clip-rule="evenodd" d="M16.9029 5.63284C15.4745 4.19981 13.5737 3.40854 11.5493 3.40854C7.37685 3.40854 3.98586 6.81427 3.98223 10.9967C3.98223 12.3349 4.33114 13.6403 4.99262 14.7889L3.92044 18.7234L7.93293 17.6696C9.03782 18.2749 10.2808 18.5921 11.5493 18.5921H11.5529C15.7217 18.5921 19.1163 15.1864 19.1199 11.004C19.1199 8.97293 18.3313 7.06587 16.9029 5.63284ZM11.5529 17.3086C10.4226 17.3086 9.31405 17.0023 8.3509 16.4298L8.12193 16.2949L5.74133 16.9221L6.37737 14.5957L6.22835 14.3587C5.59958 13.3559 5.26521 12.1927 5.26521 11.0003C5.26521 7.52167 8.08922 4.69207 11.5565 4.69207C13.2357 4.69207 14.8167 5.34842 16.0015 6.54079C17.19 7.73316 17.8442 9.31934 17.8406 11.004C17.837 14.479 15.0166 17.3086 11.5529 17.3086ZM15.002 12.5865C14.8131 12.4917 13.8826 12.0323 13.7118 11.9703C13.5373 11.9083 13.4138 11.8755 13.2866 12.0651C13.1594 12.2547 12.7995 12.6813 12.6869 12.8089C12.5778 12.9366 12.4652 12.9511 12.2762 12.8563C12.0872 12.7615 11.4766 12.561 10.7569 11.9156C10.1936 11.4124 9.81561 10.7925 9.70657 10.6029C9.59754 10.4133 9.69567 10.3112 9.79017 10.2164C9.87376 10.1325 9.97916 9.99392 10.0737 9.88453C10.1682 9.77514 10.2009 9.69492 10.2627 9.5673C10.3244 9.43967 10.2954 9.33028 10.2481 9.23548C10.2009 9.14067 9.82288 8.20719 9.66659 7.82797C9.51394 7.45968 9.35766 7.50708 9.24136 7.50344C9.13232 7.49615 9.00511 7.49615 8.8779 7.49615C8.7507 7.49615 8.54716 7.54355 8.37271 7.73316C8.19825 7.92277 7.71123 8.38222 7.71123 9.3157C7.71123 10.2492 8.38725 11.1498 8.48174 11.2775C8.57624 11.4051 9.81561 13.3194 11.7128 14.1399C12.1635 14.3368 12.516 14.4535 12.7923 14.541C13.2466 14.6868 13.6573 14.665 13.9844 14.6176C14.3478 14.5629 15.1038 14.1581 15.2601 13.7169C15.4164 13.2757 15.4164 12.8928 15.3691 12.8162C15.3146 12.7287 15.191 12.6813 15.002 12.5865Z" fill="#FAFAFA"/>
</g>
<defs>
<clipPath id="clip0_24_680">
<rect width="21.2949" height="21.2949" fill="white" transform="translate(0.535217 0.5354)"/>
</clipPath>
</defs>
</svg>
