<svg width="47" height="47" viewBox="0 0 47 47" fill="none" xmlns="http://www.w3.org/2000/svg">
<rect x="0.0900879" y="0.0600586" width="46.8489" height="46.8489" rx="12.1685" fill="#C4D600"/>
<path d="M30.2495 26.1504C29.1685 26.1504 28.1227 25.9747 27.1472 25.6583C26.8396 25.5528 26.4969 25.6319 26.2596 25.8692L24.8798 27.6005C22.3927 26.4141 20.0638 24.1731 18.8246 21.5981L20.5383 20.1392C20.7756 19.8931 20.8459 19.5504 20.7492 19.2428C20.4241 18.2673 20.2571 17.2214 20.2571 16.1405C20.2571 15.6659 19.8616 15.2704 19.387 15.2704H16.3463C15.8717 15.2704 15.3004 15.4813 15.3004 16.1405C15.3004 24.3049 22.0939 31.0895 30.2495 31.0895C30.8735 31.0895 31.1195 30.5358 31.1195 30.0525V27.0205C31.1195 26.5459 30.7241 26.1504 30.2495 26.1504Z" fill="white"/>
</svg>
