<svg width="22" height="23" viewBox="0 0 22 23" fill="none" xmlns="http://www.w3.org/2000/svg">
<g clip-path="url(#clip0_24_663)">
<path fill-rule="evenodd" clip-rule="evenodd" d="M20.7389 16.9307C20.7389 19.4345 18.7237 21.4635 16.2379 21.4635H4.55336C2.0675 21.4635 0.0523682 19.4345 0.0523682 16.9307V5.30969C0.0523682 2.80586 2.0675 0.776947 4.55336 0.776947H16.2379C18.7237 0.776947 20.7389 2.80586 20.7389 5.30969V16.9307Z" fill="#C4D600"/>
<path fill-rule="evenodd" clip-rule="evenodd" d="M13.5108 18.9118H7.22364C4.81838 18.9118 2.84839 16.9379 2.84839 14.5277V7.81098C2.84517 5.40084 4.81516 3.42685 7.22041 3.42685H13.5076C15.9129 3.42685 17.8829 5.40084 17.8829 7.81098V14.5245C17.8861 16.9379 15.9161 18.9118 13.5108 18.9118ZM13.5108 17.752C14.3653 17.752 15.1713 17.416 15.7839 16.8022C16.3933 16.1916 16.7318 15.3806 16.7318 14.5245V7.81098C16.7318 6.95483 16.3965 6.14714 15.7839 5.5333C15.1745 4.92269 14.3653 4.58346 13.5108 4.58346H7.22364C6.36922 4.58346 5.56317 4.91946 4.95057 5.5333C4.3412 6.14391 4.00266 6.95483 4.00266 7.81098V14.5245C4.00266 15.3806 4.33798 16.1883 4.95057 16.8022C5.55995 17.4128 6.36922 17.752 7.22364 17.752H13.5108Z" fill="#FAFAFA"/>
<path fill-rule="evenodd" clip-rule="evenodd" d="M14.5294 11.1094C14.5294 13.4 12.6754 15.2577 10.3895 15.2577C8.10352 15.2577 6.2496 13.4 6.2496 11.1094C6.2496 8.81877 8.10352 6.96109 10.3895 6.96109C12.6754 6.96109 14.5294 8.81877 14.5294 11.1094ZM10.3669 8.39555C8.87088 8.39555 7.65536 9.61354 7.65536 11.1126C7.65536 12.6117 8.87088 13.8297 10.3669 13.8297C11.8629 13.8297 13.0785 12.6117 13.0785 11.1126C13.0785 9.61031 11.8662 8.39555 10.3669 8.39555Z" fill="#FAFAFA"/>
<path d="M15.5565 7.09177C15.6657 6.56052 15.3245 6.04112 14.7943 5.93165C14.2641 5.82219 13.7458 6.16412 13.6365 6.69537C13.5273 7.22662 13.8685 7.74603 14.3987 7.85549C14.9289 7.96495 15.4472 7.62303 15.5565 7.09177Z" fill="#FAFAFA"/>
</g>
<defs>
<clipPath id="clip0_24_663">
<rect width="21.2949" height="21.2949" fill="white" transform="translate(0.0523682 0.776947)"/>
</clipPath>
</defs>
</svg>
