<svg width="22" height="22" viewBox="0 0 22 22" fill="none" xmlns="http://www.w3.org/2000/svg">
<g clip-path="url(#clip0_24_688)">
<path d="M21.5885 16.4264C21.5885 16.5431 21.5848 16.7947 21.5775 16.9916C21.5593 17.4693 21.5228 18.0855 21.4645 18.3663C21.377 18.7892 21.2493 19.1867 21.078 19.5185C20.8774 19.9123 20.6222 20.2624 20.3159 20.565C20.0132 20.8677 19.6632 21.1229 19.2694 21.3235C18.9375 21.4949 18.5364 21.6225 18.1098 21.71C17.8327 21.7647 17.2201 21.8048 16.746 21.8194C16.5491 21.8267 16.2975 21.8303 16.1809 21.8303H5.69383C5.57714 21.8303 5.32554 21.8267 5.12864 21.8194C4.65096 21.8012 4.03472 21.7647 3.75395 21.7064C3.33096 21.6188 2.93351 21.4912 2.60169 21.3198C2.20787 21.1193 1.85782 20.864 1.55517 20.5577C1.25252 20.2551 0.997272 19.905 0.79672 19.5112C0.62534 19.1794 0.497716 18.7783 0.410203 18.3517C0.355507 18.0746 0.315396 17.462 0.300811 16.9879C0.297164 16.7947 0.293518 16.5431 0.293518 16.4264V5.93936C0.293518 5.82267 0.297164 5.57107 0.304457 5.37416C0.322689 4.89649 0.359153 4.28025 0.417495 3.99947C0.505009 3.57649 0.632633 3.17904 0.804013 2.84721C1.00456 2.4534 1.25981 2.10335 1.56246 1.8007C1.86511 1.49805 2.21517 1.2428 2.60898 1.04225C2.9408 0.870869 3.3419 0.743245 3.76853 0.655731C4.04566 0.601035 4.65825 0.560925 5.13228 0.54634C5.32919 0.539047 5.58079 0.5354 5.69747 0.5354H16.1845C16.3012 0.5354 16.5528 0.539047 16.7497 0.54634C17.2274 0.564572 17.8436 0.601035 18.1244 0.659378C18.5474 0.746891 18.9448 0.874515 19.2766 1.0459C19.6705 1.24645 20.0205 1.50169 20.3232 1.80799C20.6258 2.11064 20.8811 2.4607 21.0816 2.85451C21.253 3.18633 21.3806 3.58743 21.4681 4.01406C21.5228 4.29119 21.5629 4.90378 21.5775 5.37781C21.5848 5.57472 21.5885 5.82632 21.5885 5.943V16.4264Z" fill="#C4D600"/>
<g clip-path="url(#clip1_24_688)">
<path d="M17.0872 5.14327C16.6755 4.76349 15.0115 3.55606 11.3051 3.53966C11.3051 3.53966 6.93439 3.2762 4.80372 5.22976C3.61767 6.41557 3.20044 8.15066 3.15643 10.3018C3.11241 12.453 3.05547 16.4844 6.9431 17.5775H6.94683L6.94434 19.2455C6.94434 19.2455 6.91947 19.9207 7.36431 20.0584C7.90238 20.2255 8.21817 19.7122 8.73187 19.159C9.01384 18.8552 9.40323 18.4091 9.69663 18.0681C12.3554 18.2918 14.4003 17.7805 14.6326 17.705C15.1694 17.531 18.2071 17.142 18.7012 13.1109C19.2112 8.95595 18.4545 6.32783 17.0872 5.14327Z" fill="#FAFAFA"/>
<path d="M16.2235 5.98244C15.8753 5.66629 14.3728 4.72256 11.2376 4.70889C11.2376 4.70889 7.52498 4.46507 5.72277 6.09677C4.71973 7.08672 4.38181 8.55885 4.34476 10.3553C4.30771 12.1518 4.11576 15.5837 7.40314 16.4966C7.40314 16.4966 7.39021 19.0445 7.38872 19.2684C7.38872 19.425 7.41358 19.5321 7.5031 19.5542C7.5675 19.5699 7.66397 19.5366 7.74603 19.4548C8.27167 18.9271 9.95452 16.8978 9.95452 16.8978C12.2125 17.0452 14.009 16.5995 14.2022 16.5364C14.6577 16.39 17.1216 16.1785 17.5386 12.8117C17.9695 9.34127 17.3802 6.97239 16.2235 5.98244Z" fill="#C4D600"/>
<path d="M12.8316 10.2078C12.7908 9.38607 12.3732 8.95451 11.5789 8.91309" stroke="#FAFAFA" stroke-width="0.482429" stroke-linecap="round" stroke-linejoin="round"/>
<path d="M13.9066 10.5682C13.9232 9.80271 13.6964 9.16313 13.2261 8.64947C12.7537 8.13399 12.0997 7.85015 11.2605 7.78876" stroke="#FAFAFA" stroke-width="0.482429" stroke-linecap="round" stroke-linejoin="round"/>
<path d="M15.007 10.9984C14.9969 9.67002 14.5998 8.62381 13.8157 7.85979C13.0317 7.09576 12.0565 6.70969 10.8904 6.70157" stroke="#FAFAFA" stroke-width="0.482429" stroke-linecap="round" stroke-linejoin="round"/>
<path d="M11.6202 13.014C11.6202 13.014 11.9148 13.0389 12.0735 12.8435L12.3828 12.4545C12.532 12.2617 12.892 12.1386 13.2446 12.335C13.5088 12.4856 13.7653 12.6494 14.0132 12.8256C14.2472 12.9976 14.7263 13.3973 14.7278 13.3973C14.9561 13.5899 15.0088 13.8727 14.8534 14.171C14.8534 14.1727 14.8521 14.1757 14.8521 14.1772C14.681 14.4738 14.4637 14.7413 14.2084 14.9696C14.2054 14.9711 14.2054 14.9726 14.2027 14.974C13.9809 15.1593 13.763 15.2646 13.549 15.2899C13.5174 15.2955 13.4854 15.2975 13.4535 15.2959C13.3591 15.2968 13.2652 15.2824 13.1755 15.2532L13.1685 15.243C12.8388 15.15 12.2883 14.9174 11.3715 14.4118C10.841 14.1227 10.336 13.7892 9.86175 13.4149C9.62406 13.2274 9.39733 13.0264 9.18269 12.8129L9.15981 12.7901L9.13693 12.7672L9.11406 12.7444C9.10635 12.7369 9.09889 12.7292 9.09118 12.7215C8.87762 12.5069 8.67654 12.2803 8.48896 12.0427C8.11454 11.5687 7.78091 11.064 7.49163 10.5338C6.98588 9.61716 6.75314 9.06738 6.66015 8.73731L6.64995 8.73035C6.6208 8.64065 6.60644 8.5468 6.60743 8.45248C6.60569 8.42055 6.60761 8.38853 6.61315 8.35704C6.63984 8.14346 6.74535 7.92548 6.92968 7.70312C6.93117 7.70038 6.93267 7.70038 6.93416 7.6974C7.16249 7.44222 7.43008 7.22509 7.72685 7.05417C7.72834 7.05417 7.73132 7.05268 7.73306 7.05268C8.03144 6.89734 8.31441 6.95003 8.50686 7.17695C8.50835 7.17844 8.90743 7.65739 9.07875 7.89127C9.2551 8.13925 9.41892 8.3959 9.56958 8.66026C9.76602 9.01245 9.64293 9.37309 9.44998 9.52172L9.06085 9.83091C8.86442 9.98948 8.89028 10.284 8.89028 10.284C8.89028 10.284 9.46664 12.4645 11.6202 13.014Z" fill="#FAFAFA"/>
</g>
</g>
<defs>
<clipPath id="clip0_24_688">
<rect width="21.2949" height="21.2949" fill="white" transform="translate(0.293518 0.5354)"/>
</clipPath>
<clipPath id="clip1_24_688">
<rect width="17.537" height="17.537" fill="white" transform="translate(2.17245 3.04059)"/>
</clipPath>
</defs>
</svg>
