<svg width="22" height="22" viewBox="0 0 22 22" fill="none" xmlns="http://www.w3.org/2000/svg">
<g clip-path="url(#clip0_24_702)">
<path d="M0.0523682 10.8501C0.0523682 5.98757 0.0523682 3.55662 1.56298 2.04601C3.07359 0.5354 5.50454 0.5354 10.3671 0.5354H11.0326C15.8951 0.5354 18.3261 0.5354 19.8367 2.04601C21.3473 3.55662 21.3473 5.98757 21.3473 10.8501V11.5156C21.3473 16.3782 21.3473 18.8091 19.8367 20.3197C18.3261 21.8303 15.8951 21.8303 11.0326 21.8303H10.3671C5.50454 21.8303 3.07359 21.8303 1.56298 20.3197C0.0523682 18.8091 0.0523682 16.3782 0.0523682 11.5156V10.8501Z" fill="#C4D600"/>
<path d="M11.3797 15.7458C6.18284 15.7458 3.21863 12.32 3.09512 6.61942H5.69833C5.78383 10.8035 7.70292 12.5758 9.22305 12.9412V6.61942L11.6743 6.61942V10.2279C13.1754 10.0726 14.7524 8.42824 15.2844 6.61942H17.7356C17.3271 8.8485 15.617 10.4928 14.4009 11.1689C15.617 11.717 17.5647 13.1513 18.3058 15.7458H15.6075C15.028 14.0101 13.5839 12.6671 11.6743 12.4844V15.7458H11.3797Z" fill="#FAFAFA"/>
</g>
<defs>
<clipPath id="clip0_24_702">
<rect width="21.2949" height="21.2949" fill="white" transform="translate(0.0523682 0.5354)"/>
</clipPath>
</defs>
</svg>
