<svg width="48" height="47" viewBox="0 0 48 47" fill="none" xmlns="http://www.w3.org/2000/svg">
<rect x="0.606667" y="0.0600433" width="46.8489" height="46.8489" rx="12.1685" fill="#C4D600"/>
<path d="M24.0214 14.0539C18.8157 14.0539 14.6003 18.2788 14.6003 23.4845C14.6003 28.6902 18.8157 32.9151 24.0214 32.9151C29.2366 32.9151 33.4615 28.6902 33.4615 23.4845C33.4615 18.2788 29.2366 14.0539 24.0214 14.0539ZM30.5569 19.7123H27.7748C27.4731 18.5334 27.0392 17.4018 26.4734 16.355C28.2086 16.9491 29.6515 18.1562 30.5569 19.7123ZM24.0309 15.9777C24.8136 17.1094 25.4266 18.3637 25.8321 19.7123H22.2296C22.6351 18.3637 23.2481 17.1094 24.0309 15.9777ZM16.7316 25.3706C16.5807 24.7671 16.4864 24.1352 16.4864 23.4845C16.4864 22.8338 16.5807 22.2019 16.7316 21.5984H19.9191C19.8437 22.2208 19.7871 22.8432 19.7871 23.4845C19.7871 24.1258 19.8437 24.7482 19.9191 25.3706H16.7316ZM17.5049 27.2568H20.2869C20.5887 28.4356 21.0225 29.5673 21.5883 30.6141C19.8531 30.0199 18.4102 28.8222 17.5049 27.2568ZM20.2869 19.7123H17.5049C18.4102 18.1468 19.8531 16.9491 21.5883 16.355C21.0225 17.4018 20.5887 18.5334 20.2869 19.7123ZM24.0309 30.9913C23.2481 29.8596 22.6351 28.6053 22.2296 27.2568H25.8321C25.4266 28.6053 24.8136 29.8596 24.0309 30.9913ZM26.2376 25.3706H21.8241C21.7392 24.7482 21.6732 24.1258 21.6732 23.4845C21.6732 22.8432 21.7392 22.2114 21.8241 21.5984H26.2376C26.3225 22.2114 26.3885 22.8432 26.3885 23.4845C26.3885 24.1258 26.3225 24.7482 26.2376 25.3706ZM26.4734 30.6141C27.0392 29.5673 27.4731 28.4356 27.7748 27.2568H30.5569C29.6515 28.8128 28.2086 30.0199 26.4734 30.6141ZM28.1426 25.3706C28.2181 24.7482 28.2747 24.1258 28.2747 23.4845C28.2747 22.8432 28.2181 22.2208 28.1426 21.5984H31.3302C31.4811 22.2019 31.5754 22.8338 31.5754 23.4845C31.5754 24.1352 31.4811 24.7671 31.3302 25.3706H28.1426Z" fill="white"/>
</svg>
