<svg width="23" height="23" viewBox="0 0 23 23" fill="none" xmlns="http://www.w3.org/2000/svg">
<g clip-path="url(#clip0_24_671)">
<path d="M19.956 6.0782C19.9688 6.26355 19.9688 6.44889 19.9688 6.63594C19.9688 12.3355 15.6349 18.9088 7.71008 18.9088V18.9054C5.36908 18.9088 3.0767 18.2375 1.10596 16.9716C1.44636 17.0126 1.78847 17.0331 2.13143 17.034C4.07146 17.0357 5.95603 16.384 7.48229 15.184C5.63867 15.149 4.02197 13.9455 3.4572 12.1886C4.10302 12.3133 4.76847 12.2877 5.40235 12.1143C3.39236 11.7077 1.9463 9.93968 1.9463 7.88638C1.9463 7.86759 1.9463 7.84965 1.9463 7.83171C2.5452 8.16567 3.21576 8.35102 3.90168 8.37152C2.00857 7.10486 1.42503 4.58349 2.56823 2.61219C4.75567 5.30693 7.98308 6.94514 11.4477 7.11852C11.1004 5.6204 11.5748 4.05052 12.6941 2.99739C14.4294 1.36432 17.1586 1.44802 18.7898 3.18445C19.7547 2.99398 20.6794 2.63952 21.5258 2.1373C21.2041 3.13576 20.531 3.9839 19.6318 4.52285C20.4858 4.42207 21.3202 4.19316 22.1059 3.84383C21.5275 4.71161 20.7989 5.46751 19.956 6.0782Z" fill="#C4D600"/>
</g>
<defs>
<clipPath id="clip0_24_671">
<rect width="21.2949" height="21.2949" fill="white" transform="translate(0.810669 0.776947)"/>
</clipPath>
</defs>
</svg>
