<svg width="23" height="22" viewBox="0 0 23 22" fill="none" xmlns="http://www.w3.org/2000/svg">
<g clip-path="url(#clip0_24_707)">
<rect x="2.63568" y="2.96902" width="17.6444" height="18.8612" rx="8.51797" fill="#FAFAFA"/>
<path d="M22.1056 11.2417C22.1056 5.33559 17.337 0.5354 11.4465 0.5354C5.57924 0.5354 0.810669 5.33559 0.810669 11.2417C0.810669 16.5831 4.71435 21.0303 9.7868 21.8303V14.3477H7.07526V11.2417H9.7868V8.88866C9.7868 6.20621 11.3763 4.7238 13.8074 4.7238C14.9761 4.7238 16.1916 4.9591 16.1916 4.9591V7.57096H14.8593C13.5269 7.57096 13.1061 8.39453 13.1061 9.24162V11.2417H16.0514L15.5839 14.3477H13.1061V21.8303C18.2019 21.0303 22.1056 16.6066 22.1056 11.2417Z" fill="#C4D600"/>
</g>
<defs>
<clipPath id="clip0_24_707">
<rect width="21.2949" height="21.2949" fill="white" transform="translate(0.810669 0.5354)"/>
</clipPath>
</defs>
</svg>
